# Blender v2.91.0 OBJ File: 'bullet.blend'
# www.blender.org
mtllib bullet.mtl
o Cylinder
v 0.000000 0.075221 -0.075221
v 0.000000 0.000000 0.219666
v 0.014675 0.073775 -0.075221
v 0.000000 0.000000 0.219666
v 0.028786 0.069495 -0.075221
v 0.000000 0.000000 0.219666
v 0.041790 0.062544 -0.075221
v 0.000000 0.000000 0.219666
v 0.053189 0.053189 -0.075221
v 0.000000 0.000000 0.219666
v 0.062544 0.041790 -0.075221
v 0.000000 0.000000 0.219666
v 0.069495 0.028786 -0.075221
v 0.000000 0.000000 0.219666
v 0.073775 0.014675 -0.075221
v 0.000000 0.000000 0.219666
v 0.075221 0.000000 -0.075221
v 0.000000 0.000000 0.219666
v 0.073775 -0.014675 -0.075221
v 0.000000 0.000000 0.219666
v 0.069495 -0.028786 -0.075221
v 0.000000 0.000000 0.219666
v 0.062544 -0.041790 -0.075221
v 0.000000 0.000000 0.219666
v 0.053189 -0.053189 -0.075221
v 0.000000 0.000000 0.219666
v 0.041790 -0.062544 -0.075221
v 0.000000 0.000000 0.219666
v 0.028786 -0.069495 -0.075221
v 0.000000 0.000000 0.219666
v 0.014675 -0.073775 -0.075221
v 0.000000 0.000000 0.219666
v -0.000000 -0.075221 -0.075221
v 0.000000 0.000000 0.219666
v -0.014675 -0.073775 -0.075221
v 0.000000 0.000000 0.219666
v -0.028786 -0.069495 -0.075221
v 0.000000 0.000000 0.219666
v -0.041790 -0.062544 -0.075221
v 0.000000 0.000000 0.219666
v -0.053189 -0.053189 -0.075221
v 0.000000 0.000000 0.219666
v -0.062544 -0.041790 -0.075221
v 0.000000 0.000000 0.219666
v -0.069495 -0.028786 -0.075221
v 0.000000 0.000000 0.219666
v -0.073775 -0.014675 -0.075221
v 0.000000 0.000000 0.219666
v -0.075221 0.000000 -0.075221
v 0.000000 0.000000 0.219666
v -0.073775 0.014675 -0.075221
v 0.000000 0.000000 0.219666
v -0.069495 0.028786 -0.075221
v 0.000000 0.000000 0.219666
v -0.062544 0.041790 -0.075221
v 0.000000 0.000000 0.219666
v -0.053189 0.053189 -0.075221
v 0.000000 0.000000 0.219666
v -0.041790 0.062544 -0.075221
v 0.000000 0.000000 0.219666
v -0.028786 0.069495 -0.075221
v 0.000000 0.000000 0.219666
v -0.014675 0.073775 -0.075221
v 0.000000 0.000000 0.219666
v 0.000000 0.075221 0.000000
v 0.014675 0.073775 0.000000
v 0.028786 0.069495 0.000000
v 0.041790 0.062544 0.000000
v 0.053189 0.053189 0.000000
v 0.062544 0.041790 0.000000
v 0.069495 0.028786 0.000000
v 0.073775 0.014675 0.000000
v 0.075221 0.000000 0.000000
v 0.073775 -0.014675 -0.000000
v 0.069495 -0.028786 -0.000000
v 0.062544 -0.041790 -0.000000
v 0.053189 -0.053189 -0.000000
v 0.041790 -0.062544 -0.000000
v 0.028786 -0.069495 -0.000000
v 0.014675 -0.073775 -0.000000
v -0.000000 -0.075221 -0.000000
v -0.014675 -0.073775 -0.000000
v -0.028786 -0.069495 -0.000000
v -0.041790 -0.062544 -0.000000
v -0.053189 -0.053189 -0.000000
v -0.062544 -0.041790 -0.000000
v -0.069495 -0.028786 -0.000000
v -0.073775 -0.014675 -0.000000
v -0.075221 0.000000 0.000000
v -0.073775 0.014675 0.000000
v -0.069495 0.028786 0.000000
v -0.062544 0.041790 0.000000
v -0.053189 0.053189 0.000000
v -0.041790 0.062544 0.000000
v -0.028786 0.069495 0.000000
v -0.014675 0.073775 0.000000
v 0.000000 0.045730 0.127397
v 0.008921 0.044851 0.127397
v 0.017500 0.042249 0.127397
v 0.025406 0.038023 0.127397
v 0.032336 0.032336 0.127397
v 0.038023 0.025406 0.127397
v 0.042249 0.017500 0.127397
v 0.044851 0.008921 0.127397
v 0.045730 0.000000 0.127397
v 0.044851 -0.008921 0.127397
v 0.042249 -0.017500 0.127397
v 0.038023 -0.025406 0.127397
v 0.032336 -0.032336 0.127397
v 0.025406 -0.038023 0.127397
v 0.017500 -0.042249 0.127397
v 0.008921 -0.044851 0.127397
v -0.000000 -0.045730 0.127397
v -0.008921 -0.044851 0.127397
v -0.017500 -0.042249 0.127397
v -0.025406 -0.038023 0.127397
v -0.032336 -0.032336 0.127397
v -0.038023 -0.025406 0.127397
v -0.042249 -0.017500 0.127397
v -0.044851 -0.008921 0.127397
v -0.045730 0.000000 0.127397
v -0.044851 0.008921 0.127397
v -0.042249 0.017500 0.127397
v -0.038023 0.025406 0.127397
v -0.032336 0.032336 0.127397
v -0.025406 0.038023 0.127397
v -0.017500 0.042249 0.127397
v -0.008921 0.044851 0.127397
v 0.012719 0.063944 0.063698
v 0.024950 0.060234 0.063698
v 0.036221 0.054209 0.063698
v 0.046101 0.046101 0.063698
v 0.054209 0.036221 0.063698
v 0.060234 0.024950 0.063698
v 0.063944 0.012719 0.063698
v 0.065197 0.000000 0.063698
v 0.063944 -0.012719 0.063698
v 0.060234 -0.024950 0.063698
v 0.054209 -0.036221 0.063698
v 0.046101 -0.046101 0.063698
v 0.036221 -0.054209 0.063698
v 0.024950 -0.060234 0.063698
v 0.012719 -0.063944 0.063698
v -0.000000 -0.065197 0.063698
v -0.012719 -0.063944 0.063698
v -0.024950 -0.060234 0.063698
v -0.036221 -0.054209 0.063698
v -0.046101 -0.046101 0.063698
v -0.054209 -0.036221 0.063698
v -0.060234 -0.024950 0.063698
v -0.063944 -0.012719 0.063698
v -0.065197 0.000000 0.063698
v -0.063944 0.012719 0.063698
v -0.060234 0.024950 0.063698
v -0.054209 0.036221 0.063698
v -0.046101 0.046101 0.063698
v -0.036221 0.054209 0.063698
v -0.024950 0.060234 0.063698
v -0.012719 0.063944 0.063698
v 0.000000 0.065197 0.063698
v 0.000000 0.062949 -0.187876
v 0.012281 0.061739 -0.187876
v 0.024089 0.058157 -0.187876
v 0.034972 0.052340 -0.187876
v 0.044512 0.044512 -0.187876
v 0.052340 0.034972 -0.187876
v 0.058157 0.024089 -0.187876
v 0.061739 0.012281 -0.187876
v 0.062949 0.000000 -0.187876
v 0.061739 -0.012281 -0.187876
v 0.058157 -0.024089 -0.187876
v 0.052340 -0.034972 -0.187876
v 0.044512 -0.044512 -0.187876
v 0.034972 -0.052340 -0.187876
v 0.024089 -0.058157 -0.187876
v 0.012281 -0.061739 -0.187876
v -0.000000 -0.062949 -0.187876
v -0.012281 -0.061739 -0.187876
v -0.024089 -0.058157 -0.187876
v -0.034973 -0.052340 -0.187876
v -0.044512 -0.044511 -0.187876
v -0.052340 -0.034972 -0.187876
v -0.058157 -0.024089 -0.187876
v -0.061739 -0.012281 -0.187876
v -0.062949 0.000000 -0.187876
v -0.061739 0.012281 -0.187876
v -0.058157 0.024090 -0.187876
v -0.052340 0.034973 -0.187876
v -0.044511 0.044512 -0.187876
v -0.034972 0.052340 -0.187876
v -0.024089 0.058157 -0.187876
v -0.012281 0.061739 -0.187876
vt 1.000000 0.875000
vt 1.000000 1.000000
vt 0.968750 1.000000
vt 0.968750 0.875000
vt 0.937500 1.000000
vt 0.937500 0.875000
vt 0.906250 1.000000
vt 0.906250 0.875000
vt 0.875000 1.000000
vt 0.875000 0.875000
vt 0.843750 1.000000
vt 0.843750 0.875000
vt 0.812500 1.000000
vt 0.812500 0.875000
vt 0.781250 1.000000
vt 0.781250 0.875000
vt 0.750000 1.000000
vt 0.750000 0.875000
vt 0.718750 1.000000
vt 0.718750 0.875000
vt 0.687500 1.000000
vt 0.687500 0.875000
vt 0.656250 1.000000
vt 0.656250 0.875000
vt 0.625000 1.000000
vt 0.625000 0.875000
vt 0.593750 1.000000
vt 0.593750 0.875000
vt 0.562500 1.000000
vt 0.562500 0.875000
vt 0.531250 1.000000
vt 0.531250 0.875000
vt 0.500000 1.000000
vt 0.500000 0.875000
vt 0.468750 1.000000
vt 0.468750 0.875000
vt 0.437500 1.000000
vt 0.437500 0.875000
vt 0.406250 1.000000
vt 0.406250 0.875000
vt 0.375000 1.000000
vt 0.375000 0.875000
vt 0.343750 1.000000
vt 0.343750 0.875000
vt 0.312500 1.000000
vt 0.312500 0.875000
vt 0.281250 1.000000
vt 0.281250 0.875000
vt 0.250000 1.000000
vt 0.250000 0.875000
vt 0.218750 1.000000
vt 0.218750 0.875000
vt 0.187500 1.000000
vt 0.187500 0.875000
vt 0.156250 1.000000
vt 0.156250 0.875000
vt 0.125000 1.000000
vt 0.125000 0.875000
vt 0.093750 1.000000
vt 0.093750 0.875000
vt 0.062500 1.000000
vt 0.062500 0.875000
vt 0.296822 0.485388
vt 0.250000 0.490000
vt 0.203179 0.485389
vt 0.158156 0.471731
vt 0.116663 0.449553
vt 0.080295 0.419706
vt 0.050447 0.383337
vt 0.028269 0.341844
vt 0.014612 0.296822
vt 0.010000 0.250000
vt 0.014611 0.203179
vt 0.028269 0.158156
vt 0.050447 0.116663
vt 0.080294 0.080294
vt 0.116663 0.050447
vt 0.158156 0.028269
vt 0.203178 0.014612
vt 0.250000 0.010000
vt 0.296822 0.014612
vt 0.341844 0.028269
vt 0.383337 0.050447
vt 0.419706 0.080294
vt 0.449553 0.116663
vt 0.471731 0.158156
vt 0.485388 0.203178
vt 0.490000 0.250000
vt 0.485388 0.296822
vt 0.471731 0.341844
vt 0.449553 0.383337
vt 0.419706 0.419706
vt 0.383337 0.449553
vt 0.341844 0.471731
vt 0.031250 1.000000
vt 0.031250 0.875000
vt 0.000000 1.000000
vt 0.000000 0.875000
vt 0.750000 0.500000
vt 0.718750 0.500000
vt 0.718750 0.500000
vt 0.750000 0.500000
vt 0.031250 0.500000
vt 0.031250 0.750000
vt 0.000000 0.750000
vt 0.000000 0.500000
vt 0.062500 0.500000
vt 0.062500 0.750000
vt 0.093750 0.500000
vt 0.093750 0.750000
vt 0.125000 0.500000
vt 0.125000 0.750000
vt 0.156250 0.500000
vt 0.156250 0.750000
vt 0.187500 0.500000
vt 0.187500 0.750000
vt 0.218750 0.500000
vt 0.218750 0.750000
vt 0.250000 0.500000
vt 0.250000 0.750000
vt 0.281250 0.500000
vt 0.281250 0.750000
vt 0.312500 0.500000
vt 0.312500 0.750000
vt 0.343750 0.500000
vt 0.343750 0.750000
vt 0.375000 0.500000
vt 0.375000 0.750000
vt 0.406250 0.500000
vt 0.406250 0.750000
vt 0.437500 0.500000
vt 0.437500 0.750000
vt 0.468750 0.500000
vt 0.468750 0.750000
vt 0.500000 0.500000
vt 0.500000 0.750000
vt 0.531250 0.500000
vt 0.531250 0.750000
vt 0.562500 0.500000
vt 0.562500 0.750000
vt 0.593750 0.500000
vt 0.593750 0.750000
vt 0.625000 0.500000
vt 0.625000 0.750000
vt 0.656250 0.500000
vt 0.656250 0.750000
vt 0.687500 0.500000
vt 0.687500 0.750000
vt 0.718750 0.750000
vt 0.750000 0.750000
vt 0.781250 0.500000
vt 0.781250 0.750000
vt 0.812500 0.500000
vt 0.812500 0.750000
vt 0.843750 0.500000
vt 0.843750 0.750000
vt 0.875000 0.500000
vt 0.875000 0.750000
vt 0.906250 0.500000
vt 0.906250 0.750000
vt 0.937500 0.500000
vt 0.937500 0.750000
vt 0.968750 0.500000
vt 0.968750 0.750000
vt 1.000000 0.500000
vt 1.000000 0.750000
vt 0.031250 0.812500
vt 0.000000 0.812500
vt 0.062500 0.812500
vt 0.093750 0.812500
vt 0.125000 0.812500
vt 0.156250 0.812500
vt 0.187500 0.812500
vt 0.218750 0.812500
vt 0.250000 0.812500
vt 0.281250 0.812500
vt 0.312500 0.812500
vt 0.343750 0.812500
vt 0.375000 0.812500
vt 0.406250 0.812500
vt 0.437500 0.812500
vt 0.468750 0.812500
vt 0.500000 0.812500
vt 0.531250 0.812500
vt 0.562500 0.812500
vt 0.593750 0.812500
vt 0.625000 0.812500
vt 0.656250 0.812500
vt 0.687500 0.812500
vt 0.718750 0.812500
vt 0.750000 0.812500
vt 0.781250 0.812500
vt 0.812500 0.812500
vt 0.843750 0.812500
vt 0.875000 0.812500
vt 0.906250 0.812500
vt 0.937500 0.812500
vt 0.968750 0.812500
vt 1.000000 0.812500
vt 0.750000 0.490000
vt 0.796822 0.485388
vt 0.841844 0.471731
vt 0.883337 0.449553
vt 0.919706 0.419706
vt 0.949553 0.383337
vt 0.971731 0.341844
vt 0.985388 0.296822
vt 0.990000 0.250000
vt 0.985388 0.203178
vt 0.971731 0.158156
vt 0.949553 0.116663
vt 0.919706 0.080294
vt 0.883337 0.050447
vt 0.841844 0.028269
vt 0.796822 0.014612
vt 0.750000 0.010000
vt 0.703178 0.014612
vt 0.658156 0.028269
vt 0.616663 0.050447
vt 0.580294 0.080294
vt 0.550447 0.116663
vt 0.528269 0.158156
vt 0.514611 0.203179
vt 0.510000 0.250000
vt 0.514612 0.296822
vt 0.528269 0.341844
vt 0.550447 0.383337
vt 0.580295 0.419706
vt 0.616663 0.449553
vt 0.658156 0.471731
vt 0.703179 0.485389
vt 0.437500 0.500000
vt 0.468750 0.500000
vt 0.156250 0.500000
vt 0.187500 0.500000
vt 0.843750 0.500000
vt 0.875000 0.500000
vt 0.562500 0.500000
vt 0.593750 0.500000
vt 0.281250 0.500000
vt 0.312500 0.500000
vt 0.968750 0.500000
vt 1.000000 0.500000
vt 0.000000 0.500000
vt 0.031250 0.500000
vt 0.687500 0.500000
vt 0.406250 0.500000
vt 0.125000 0.500000
vt 0.812500 0.500000
vt 0.531250 0.500000
vt 0.250000 0.500000
vt 0.937500 0.500000
vt 0.656250 0.500000
vt 0.375000 0.500000
vt 0.093750 0.500000
vt 0.781250 0.500000
vt 0.500000 0.500000
vt 0.218750 0.500000
vt 0.906250 0.500000
vt 0.625000 0.500000
vt 0.343750 0.500000
vt 0.062500 0.500000
vn 0.0000 0.9300 0.3677
vn 0.0000 0.8960 0.4441
vn 0.1350 0.6687 0.7311
vn 0.1814 0.9121 0.3677
vn 0.2554 0.6266 0.7363
vn 0.3559 0.8592 0.3677
vn 0.3858 0.5865 0.7122
vn 0.5167 0.7732 0.3677
vn 0.4862 0.4862 0.7260
vn 0.6576 0.6576 0.3677
vn 0.5865 0.3858 0.7122
vn 0.7732 0.5167 0.3677
vn 0.6266 0.2554 0.7363
vn 0.8592 0.3559 0.3677
vn 0.6687 0.1350 0.7311
vn 0.9121 0.1814 0.3677
vn 0.8960 0.0000 0.4441
vn 0.9300 0.0000 0.3677
vn 0.6799 -0.1334 0.7211
vn 0.9121 -0.1814 0.3677
vn 0.6432 -0.2702 0.7164
vn 0.8592 -0.3559 0.3677
vn 0.5550 -0.3777 0.7412
vn 0.7732 -0.5167 0.3677
vn 0.4862 -0.4862 0.7260
vn 0.6576 -0.6576 0.3677
vn 0.3858 -0.5865 0.7122
vn 0.5167 -0.7732 0.3677
vn 0.2554 -0.6266 0.7363
vn 0.3559 -0.8592 0.3677
vn 0.1387 -0.6410 0.7549
vn 0.1814 -0.9121 0.3677
vn 0.0000 -0.8960 0.4441
vn 0.0000 -0.9300 0.3677
vn -0.1385 -0.6424 0.7538
vn -0.1814 -0.9121 0.3677
vn -0.2702 -0.6432 0.7164
vn -0.3559 -0.8592 0.3677
vn -0.3777 -0.5550 0.7412
vn -0.5167 -0.7732 0.3677
vn -0.4862 -0.4862 0.7260
vn -0.6576 -0.6576 0.3677
vn -0.5550 -0.3777 0.7412
vn -0.7732 -0.5167 0.3677
vn -0.6432 -0.2702 0.7164
vn -0.8592 -0.3559 0.3677
vn -0.6799 -0.1334 0.7211
vn -0.9121 -0.1814 0.3677
vn -0.8960 0.0000 0.4441
vn -0.9300 0.0000 0.3677
vn -0.6687 0.1350 0.7311
vn -0.9121 0.1814 0.3677
vn -0.6266 0.2554 0.7363
vn -0.8592 0.3559 0.3677
vn -0.5865 0.3858 0.7122
vn -0.7732 0.5167 0.3677
vn -0.4862 0.4862 0.7260
vn -0.6576 0.6576 0.3677
vn -0.3777 0.5550 0.7412
vn -0.5167 0.7732 0.3677
vn -0.2702 0.6432 0.7164
vn -0.3559 0.8592 0.3677
vn -0.1334 0.6799 0.7211
vn -0.1814 0.9121 0.3677
vn 0.9985 0.0000 -0.0540
vn 0.9794 -0.1948 -0.0540
vn 0.9750 -0.1939 -0.1083
vn 0.9941 0.0000 -0.1083
vn -0.1948 0.9794 -0.0540
vn -0.1945 0.9778 0.0776
vn 0.0000 0.9970 0.0776
vn 0.0000 0.9985 -0.0540
vn -0.3821 0.9225 -0.0540
vn -0.3815 0.9211 0.0776
vn -0.5548 0.8303 -0.0540
vn -0.5539 0.8290 0.0776
vn -0.7061 0.7061 -0.0540
vn -0.7050 0.7050 0.0776
vn -0.8303 0.5548 -0.0540
vn -0.8290 0.5539 0.0776
vn -0.9225 0.3821 -0.0540
vn -0.9211 0.3815 0.0776
vn -0.9794 0.1948 -0.0540
vn -0.9778 0.1945 0.0776
vn -0.9985 0.0000 -0.0540
vn -0.9970 0.0000 0.0776
vn -0.9794 -0.1948 -0.0540
vn -0.9778 -0.1945 0.0776
vn -0.9225 -0.3821 -0.0540
vn -0.9211 -0.3815 0.0776
vn -0.8303 -0.5548 -0.0540
vn -0.8290 -0.5539 0.0776
vn -0.7061 -0.7061 -0.0540
vn -0.7050 -0.7050 0.0776
vn -0.5548 -0.8303 -0.0540
vn -0.5539 -0.8290 0.0776
vn -0.3821 -0.9225 -0.0540
vn -0.3815 -0.9211 0.0776
vn -0.1948 -0.9794 -0.0540
vn -0.1945 -0.9778 0.0776
vn -0.0000 -0.9985 -0.0540
vn -0.0000 -0.9970 0.0776
vn 0.1948 -0.9794 -0.0540
vn 0.1945 -0.9778 0.0776
vn 0.3821 -0.9225 -0.0540
vn 0.3815 -0.9211 0.0776
vn 0.5548 -0.8303 -0.0540
vn 0.5539 -0.8290 0.0776
vn 0.7061 -0.7061 -0.0540
vn 0.7050 -0.7050 0.0776
vn 0.8303 -0.5548 -0.0540
vn 0.8290 -0.5539 0.0776
vn 0.9225 -0.3821 -0.0540
vn 0.9211 -0.3815 0.0776
vn 0.9778 -0.1945 0.0776
vn 0.9970 0.0000 0.0776
vn 0.9794 0.1948 -0.0540
vn 0.9778 0.1945 0.0776
vn 0.9225 0.3821 -0.0540
vn 0.9211 0.3815 0.0776
vn 0.8303 0.5548 -0.0540
vn 0.8290 0.5539 0.0776
vn 0.7061 0.7061 -0.0540
vn 0.7050 0.7050 0.0776
vn 0.5548 0.8303 -0.0540
vn 0.5539 0.8290 0.0776
vn 0.3821 0.9225 -0.0540
vn 0.3815 0.9211 0.0776
vn 0.1948 0.9794 -0.0540
vn 0.1945 0.9778 0.0776
vn -0.1902 0.9560 0.2235
vn 0.0000 0.9747 0.2235
vn -0.3730 0.9005 0.2235
vn -0.5415 0.8104 0.2235
vn -0.6892 0.6892 0.2235
vn -0.8104 0.5415 0.2235
vn -0.9005 0.3730 0.2235
vn -0.9560 0.1902 0.2235
vn -0.9747 0.0000 0.2235
vn -0.9560 -0.1902 0.2235
vn -0.9005 -0.3730 0.2235
vn -0.8104 -0.5415 0.2235
vn -0.6892 -0.6892 0.2235
vn -0.5415 -0.8104 0.2235
vn -0.3730 -0.9005 0.2235
vn -0.1902 -0.9560 0.2235
vn -0.0000 -0.9747 0.2235
vn 0.1902 -0.9560 0.2235
vn 0.3730 -0.9005 0.2235
vn 0.5415 -0.8104 0.2235
vn 0.6892 -0.6892 0.2235
vn 0.8104 -0.5415 0.2235
vn 0.9005 -0.3730 0.2235
vn 0.9560 -0.1902 0.2235
vn 0.9747 0.0000 0.2235
vn 0.9560 0.1902 0.2235
vn 0.9005 0.3730 0.2235
vn 0.8104 0.5415 0.2235
vn 0.6892 0.6892 0.2235
vn 0.5415 0.8104 0.2235
vn 0.3730 0.9005 0.2235
vn 0.1902 0.9560 0.2235
vn -0.0000 0.0000 -1.0000
vn -0.3804 -0.9184 -0.1083
vn -0.1939 -0.9750 -0.1083
vn -0.8266 0.5523 -0.1083
vn -0.9184 0.3804 -0.1083
vn 0.8266 0.5523 -0.1083
vn 0.7029 0.7029 -0.1083
vn 0.3804 -0.9184 -0.1083
vn 0.5523 -0.8266 -0.1083
vn -0.9750 -0.1939 -0.1083
vn -0.9184 -0.3804 -0.1083
vn 0.1939 0.9750 -0.1083
vn 0.0000 0.9941 -0.1083
vn -0.1939 0.9750 -0.1083
vn 0.9184 -0.3804 -0.1083
vn -0.5523 -0.8266 -0.1083
vn -0.7029 0.7029 -0.1083
vn 0.9184 0.3804 -0.1083
vn 0.1939 -0.9750 -0.1083
vn -0.9941 0.0000 -0.1083
vn 0.3804 0.9184 -0.1083
vn 0.8266 -0.5523 -0.1083
vn -0.7029 -0.7029 -0.1083
vn -0.5523 0.8266 -0.1083
vn 0.9750 0.1939 -0.1083
vn -0.0000 -0.9941 -0.1083
vn -0.9750 0.1939 -0.1083
vn 0.5523 0.8266 -0.1083
vn 0.7029 -0.7029 -0.1083
vn -0.8266 -0.5523 -0.1083
vn -0.3804 0.9184 -0.1083
usemtl None
s 1
f 97/1/1 2/2/2 4/3/3 98/4/4
f 98/4/4 4/3/3 6/5/5 99/6/6
f 99/6/6 6/5/5 8/7/7 100/8/8
f 100/8/8 8/7/7 10/9/9 101/10/10
f 101/10/10 10/9/9 12/11/11 102/12/12
f 102/12/12 12/11/11 14/13/13 103/14/14
f 103/14/14 14/13/13 16/15/15 104/16/16
f 104/16/16 16/15/15 18/17/17 105/18/18
f 105/18/18 18/17/17 20/19/19 106/20/20
f 106/20/20 20/19/19 22/21/21 107/22/22
f 107/22/22 22/21/21 24/23/23 108/24/24
f 108/24/24 24/23/23 26/25/25 109/26/26
f 109/26/26 26/25/25 28/27/27 110/28/28
f 110/28/28 28/27/27 30/29/29 111/30/30
f 111/30/30 30/29/29 32/31/31 112/32/32
f 112/32/32 32/31/31 34/33/33 113/34/34
f 113/34/34 34/33/33 36/35/35 114/36/36
f 114/36/36 36/35/35 38/37/37 115/38/38
f 115/38/38 38/37/37 40/39/39 116/40/40
f 116/40/40 40/39/39 42/41/41 117/42/42
f 117/42/42 42/41/41 44/43/43 118/44/44
f 118/44/44 44/43/43 46/45/45 119/46/46
f 119/46/46 46/45/45 48/47/47 120/48/48
f 120/48/48 48/47/47 50/49/49 121/50/50
f 121/50/50 50/49/49 52/51/51 122/52/52
f 122/52/52 52/51/51 54/53/53 123/54/54
f 123/54/54 54/53/53 56/55/55 124/56/56
f 124/56/56 56/55/55 58/57/57 125/58/58
f 125/58/58 58/57/57 60/59/59 126/60/60
f 126/60/60 60/59/59 62/61/61 127/62/62
f 4/63/3 2/64/2 64/65/63 62/66/61 60/67/59 58/68/57 56/69/55 54/70/53 52/71/51 50/72/49 48/73/47 46/74/45 44/75/43 42/76/41 40/77/39 38/78/37 36/79/35 34/80/33 32/81/31 30/82/29 28/83/27 26/84/25 24/85/23 22/86/21 20/87/19 18/88/17 16/89/15 14/90/13 12/91/11 10/92/9 8/93/7 6/94/5
f 127/62/62 62/61/61 64/95/63 128/96/64
f 128/96/64 64/95/63 2/97/2 97/98/1
f 17/99/65 19/100/66 170/101/67 169/102/68
f 63/103/69 96/104/70 65/105/71 1/106/72
f 61/107/73 95/108/74 96/104/70 63/103/69
f 59/109/75 94/110/76 95/108/74 61/107/73
f 57/111/77 93/112/78 94/110/76 59/109/75
f 55/113/79 92/114/80 93/112/78 57/111/77
f 53/115/81 91/116/82 92/114/80 55/113/79
f 51/117/83 90/118/84 91/116/82 53/115/81
f 49/119/85 89/120/86 90/118/84 51/117/83
f 47/121/87 88/122/88 89/120/86 49/119/85
f 45/123/89 87/124/90 88/122/88 47/121/87
f 43/125/91 86/126/92 87/124/90 45/123/89
f 41/127/93 85/128/94 86/126/92 43/125/91
f 39/129/95 84/130/96 85/128/94 41/127/93
f 37/131/97 83/132/98 84/130/96 39/129/95
f 35/133/99 82/134/100 83/132/98 37/131/97
f 33/135/101 81/136/102 82/134/100 35/133/99
f 31/137/103 80/138/104 81/136/102 33/135/101
f 29/139/105 79/140/106 80/138/104 31/137/103
f 27/141/107 78/142/108 79/140/106 29/139/105
f 25/143/109 77/144/110 78/142/108 27/141/107
f 23/145/111 76/146/112 77/144/110 25/143/109
f 21/147/113 75/148/114 76/146/112 23/145/111
f 19/100/66 74/149/115 75/148/114 21/147/113
f 17/99/65 73/150/116 74/149/115 19/100/66
f 15/151/117 72/152/118 73/150/116 17/99/65
f 13/153/119 71/154/120 72/152/118 15/151/117
f 11/155/121 70/156/122 71/154/120 13/153/119
f 9/157/123 69/158/124 70/156/122 11/155/121
f 7/159/125 68/160/126 69/158/124 9/157/123
f 5/161/127 67/162/128 68/160/126 7/159/125
f 3/163/129 66/164/130 67/162/128 5/161/127
f 1/165/72 65/166/71 66/164/130 3/163/129
f 159/167/131 128/96/64 97/98/1 160/168/132
f 158/169/133 127/62/62 128/96/64 159/167/131
f 157/170/134 126/60/60 127/62/62 158/169/133
f 156/171/135 125/58/58 126/60/60 157/170/134
f 155/172/136 124/56/56 125/58/58 156/171/135
f 154/173/137 123/54/54 124/56/56 155/172/136
f 153/174/138 122/52/52 123/54/54 154/173/137
f 152/175/139 121/50/50 122/52/52 153/174/138
f 151/176/140 120/48/48 121/50/50 152/175/139
f 150/177/141 119/46/46 120/48/48 151/176/140
f 149/178/142 118/44/44 119/46/46 150/177/141
f 148/179/143 117/42/42 118/44/44 149/178/142
f 147/180/144 116/40/40 117/42/42 148/179/143
f 146/181/145 115/38/38 116/40/40 147/180/144
f 145/182/146 114/36/36 115/38/38 146/181/145
f 144/183/147 113/34/34 114/36/36 145/182/146
f 143/184/148 112/32/32 113/34/34 144/183/147
f 142/185/149 111/30/30 112/32/32 143/184/148
f 141/186/150 110/28/28 111/30/30 142/185/149
f 140/187/151 109/26/26 110/28/28 141/186/150
f 139/188/152 108/24/24 109/26/26 140/187/151
f 138/189/153 107/22/22 108/24/24 139/188/152
f 137/190/154 106/20/20 107/22/22 138/189/153
f 136/191/155 105/18/18 106/20/20 137/190/154
f 135/192/156 104/16/16 105/18/18 136/191/155
f 134/193/157 103/14/14 104/16/16 135/192/156
f 133/194/158 102/12/12 103/14/14 134/193/157
f 132/195/159 101/10/10 102/12/12 133/194/158
f 131/196/160 100/8/8 101/10/10 132/195/159
f 130/197/161 99/6/6 100/8/8 131/196/160
f 129/198/162 98/4/4 99/6/6 130/197/161
f 160/199/132 97/1/1 98/4/4 129/198/162
f 65/166/71 160/199/132 129/198/162 66/164/130
f 66/164/130 129/198/162 130/197/161 67/162/128
f 67/162/128 130/197/161 131/196/160 68/160/126
f 68/160/126 131/196/160 132/195/159 69/158/124
f 69/158/124 132/195/159 133/194/158 70/156/122
f 70/156/122 133/194/158 134/193/157 71/154/120
f 71/154/120 134/193/157 135/192/156 72/152/118
f 72/152/118 135/192/156 136/191/155 73/150/116
f 73/150/116 136/191/155 137/190/154 74/149/115
f 74/149/115 137/190/154 138/189/153 75/148/114
f 75/148/114 138/189/153 139/188/152 76/146/112
f 76/146/112 139/188/152 140/187/151 77/144/110
f 77/144/110 140/187/151 141/186/150 78/142/108
f 78/142/108 141/186/150 142/185/149 79/140/106
f 79/140/106 142/185/149 143/184/148 80/138/104
f 80/138/104 143/184/148 144/183/147 81/136/102
f 81/136/102 144/183/147 145/182/146 82/134/100
f 82/134/100 145/182/146 146/181/145 83/132/98
f 83/132/98 146/181/145 147/180/144 84/130/96
f 84/130/96 147/180/144 148/179/143 85/128/94
f 85/128/94 148/179/143 149/178/142 86/126/92
f 86/126/92 149/178/142 150/177/141 87/124/90
f 87/124/90 150/177/141 151/176/140 88/122/88
f 88/122/88 151/176/140 152/175/139 89/120/86
f 89/120/86 152/175/139 153/174/138 90/118/84
f 90/118/84 153/174/138 154/173/137 91/116/82
f 91/116/82 154/173/137 155/172/136 92/114/80
f 92/114/80 155/172/136 156/171/135 93/112/78
f 93/112/78 156/171/135 157/170/134 94/110/76
f 94/110/76 157/170/134 158/169/133 95/108/74
f 95/108/74 158/169/133 159/167/131 96/104/70
f 96/104/70 159/167/131 160/168/132 65/105/71
f 161/200/163 162/201/163 163/202/163 164/203/163 165/204/163 166/205/163 167/206/163 168/207/163 169/208/163 170/209/163 171/210/163 172/211/163 173/212/163 174/213/163 175/214/163 176/215/163 177/216/163 178/217/163 179/218/163 180/219/163 181/220/163 182/221/163 183/222/163 184/223/163 185/224/163 186/225/163 187/226/163 188/227/163 189/228/163 190/229/163 191/230/163 192/231/163
f 35/133/99 37/131/97 179/232/164 178/233/165
f 53/115/81 55/113/79 188/234/166 187/235/167
f 9/157/123 11/155/121 166/236/168 165/237/169
f 27/141/107 29/139/105 175/238/170 174/239/171
f 45/123/89 47/121/87 184/240/172 183/241/173
f 1/165/72 3/163/129 162/242/174 161/243/175
f 63/103/69 1/106/72 161/244/175 192/245/176
f 19/100/66 21/147/113 171/246/177 170/101/67
f 37/131/97 39/129/95 180/247/178 179/232/164
f 55/113/79 57/111/77 189/248/179 188/234/166
f 11/155/121 13/153/119 167/249/180 166/236/168
f 29/139/105 31/137/103 176/250/181 175/238/170
f 47/121/87 49/119/85 185/251/182 184/240/172
f 3/163/129 5/161/127 163/252/183 162/242/174
f 21/147/113 23/145/111 172/253/184 171/246/177
f 39/129/95 41/127/93 181/254/185 180/247/178
f 57/111/77 59/109/75 190/255/186 189/248/179
f 13/153/119 15/151/117 168/256/187 167/249/180
f 31/137/103 33/135/101 177/257/188 176/250/181
f 49/119/85 51/117/83 186/258/189 185/251/182
f 5/161/127 7/159/125 164/259/190 163/252/183
f 23/145/111 25/143/109 173/260/191 172/253/184
f 41/127/93 43/125/91 182/261/192 181/254/185
f 59/109/75 61/107/73 191/262/193 190/255/186
f 15/151/117 17/99/65 169/102/68 168/256/187
f 33/135/101 35/133/99 178/233/165 177/257/188
f 51/117/83 53/115/81 187/235/167 186/258/189
f 7/159/125 9/157/123 165/237/169 164/259/190
f 25/143/109 27/141/107 174/239/171 173/260/191
f 43/125/91 45/123/89 183/241/173 182/261/192
f 61/107/73 63/103/69 192/245/176 191/262/193
